<svg id="Layer_1" height="512" viewBox="0 0 512 512" width="512" xmlns="http://www.w3.org/2000/svg" data-name="Layer 1"><path d="m496 247.38-11.05 46.98-.66-.15h-456.58l-.66.15-11.05-46.98z" fill="#e48e66"/><path d="m484.95 294.36-27.28 115.94a46.839 46.839 0 0 1 -45.59 36.1h-312.16a46.839 46.839 0 0 1 -45.59-36.1l-27.28-115.94.66-.15h456.58z" fill="#f8ec7d"/><path d="m391.44 65.6a17.56 17.56 0 1 1 -17.57 17.56 17.564 17.564 0 0 1 17.57-17.56z" fill="#6fe3ff"/><path d="m341.19 149.64a23.415 23.415 0 1 1 -23.41 23.42 23.417 23.417 0 0 1 23.41-23.42z" fill="#6fe3ff"/><path d="m207.22 106.57a23.415 23.415 0 1 1 -23.42 23.42 23.417 23.417 0 0 1 23.42-23.42z" fill="#6fe3ff"/><g fill="#63316d"><path d="m496 240.38h-461.29v-76.31a28.12 28.12 0 0 1 56.24 0v23.42a7 7 0 0 0 14 0v-23.42a42.12 42.12 0 0 0 -84.24 0v76.31h-4.71a7 7 0 0 0 -6.814 8.6l38.331 162.92a53.628 53.628 0 0 0 52.4 41.5h312.163a53.628 53.628 0 0 0 52.4-41.5l27.281-115.939 11.049-46.981a7 7 0 0 0 -6.814-8.6zm-16.56 46.83h-446.878l-7.724-32.83h462.324zm-28.584 121.49a39.684 39.684 0 0 1 -38.776 30.7h-312.16a39.684 39.684 0 0 1 -38.776-30.7l-25.289-107.49h440.292z"/><path d="m391.44 107.72a24.56 24.56 0 1 0 -24.57-24.56 24.588 24.588 0 0 0 24.57 24.56zm0-35.12a10.56 10.56 0 1 1 -10.57 10.56 10.572 10.572 0 0 1 10.57-10.56z"/><path d="m341.19 142.64a30.415 30.415 0 1 0 30.41 30.42 30.45 30.45 0 0 0 -30.41-30.42zm0 46.83a16.415 16.415 0 1 1 16.41-16.41 16.429 16.429 0 0 1 -16.41 16.41z"/><path d="m176.8 129.99a30.415 30.415 0 1 0 30.42-30.42 30.449 30.449 0 0 0 -30.42 30.42zm46.83 0a16.415 16.415 0 1 1 -16.41-16.42 16.428 16.428 0 0 1 16.41 16.42z"/></g></svg>