<svg width="224" height="513" viewBox="0 0 224 513" fill="none" xmlns="http://www.w3.org/2000/svg">
<path fill-rule="evenodd" clip-rule="evenodd" d="M210.179 311.608C218.534 318.123 223.859 328.272 223.859 339.663C223.859 351.657 217.761 362.275 208.639 368.723C217.822 375.978 223.482 387.199 223.482 399.783V463.908C223.482 485.73 206.229 503.986 184.406 503.986H144.328V503.327C137.657 508.448 129.321 512.002 120.281 512.002H104.25C95.21 512.002 86.874 508.447 80.203 503.327V503.986H40.125C18.303 503.986 0.0469971 485.731 0.0469971 463.908V399.783C0.0469971 387.199 6.192 375.977 15.375 368.723C6.254 362.276 0.516998 351.658 0.516998 339.665C0.516998 328.274 5.874 318.125 14.228 311.61C5.874 305.095 0.423004 294.946 0.423004 283.555C0.423004 271.561 6.27001 260.944 15.391 254.497C6.20801 247.242 0.0469971 236.021 0.0469971 223.437V148.74L72.957 55.108H56.156V0H167.374V55.108H151.574L223.483 148.74V223.435C223.483 236.019 217.808 247.241 208.625 254.495C217.746 260.942 223.953 271.56 223.953 283.553C223.953 294.944 218.533 305.093 210.179 311.608ZM71.186 15.029V40.078H152.345V15.029H71.186ZM132.611 55.108H91.919L23.323 144.282H201.207L132.611 55.108ZM208.955 340.164C208.955 328.838 199.741 319.624 188.415 319.624L172 319.624L168.376 319.624H120.282L120 319.624L36.118 319.624C24.792 319.624 15.578 328.838 15.578 340.164C15.578 351.49 24.792 360.704 36.118 360.704L120 360.704L120.282 360.704H168.376L177 360.704L188.415 360.704C199.741 360.704 208.955 351.49 208.955 340.164ZM177 375.733L168.376 375.733H120.282L120 375.733L40.125 375.733C26.589 375.733 15.076 386.244 15.076 399.78V463.905C15.076 477.442 26.59 488.954 40.125 488.954H68.305C65.98 482.943 64.673 477.821 64.673 471.921H79.702C79.702 485.458 90.715 496.97 104.25 496.97H120.282C133.818 496.97 144.83 485.457 144.83 471.921H159.859C159.859 477.82 158.552 482.942 156.227 488.954H184.407C197.944 488.954 208.454 477.441 208.454 463.905V399.78C208.454 386.244 197.943 375.733 184.407 375.733L177 375.733ZM120 304.595L120.282 304.595H168.376L172 304.595L188.415 304.595C199.741 304.595 208.955 295.381 208.955 284.055C208.955 272.729 199.741 263.515 188.415 263.515H168.376V263.514H120.282V263.515H36.118C24.792 263.515 15.578 272.729 15.578 284.055C15.578 295.381 24.792 304.595 36.118 304.595L120 304.595ZM172 248.485V248.486H184.407C197.944 248.486 208.454 236.973 208.454 223.437V159.312H15.076V223.437C15.076 236.974 26.59 248.486 40.125 248.486H120V248.485H172Z" fill="black"/>
</svg>
