<svg width="494" height="512" viewBox="0 0 494 512" fill="none" xmlns="http://www.w3.org/2000/svg">
<path fill-rule="evenodd" clip-rule="evenodd" d="M150.497 0H452.94C475.578 0 493.994 18.415 493.994 41.052C493.994 63.689 475.577 82.105 452.94 82.105H449.666L401.628 396.573C401.626 396.587 401.624 396.6 401.622 396.614L400.57 403.5C400.569 403.505 400.568 403.51 400.568 403.515L389.792 474.05C386.432 496.04 367.849 512 345.604 512H148.392C126.148 512 107.563 496.04 104.204 474.05L44.328 82.106H41.054C18.416 82.106 0 63.69 0 41.053C0 18.416 18.416 0 41.054 0H140.258H150.497ZM143.997 18.022H140.258H41.054C28.354 18.022 18.023 28.354 18.023 41.052C18.023 53.75 28.355 64.082 41.054 64.082H52.067H441.927H452.94C465.639 64.082 475.971 53.75 475.971 41.052C475.971 28.354 465.639 18.022 452.94 18.022H143.997ZM390.114 352.589C390.117 352.571 390.119 352.553 390.122 352.535L392.037 340L431.435 82.105H62.56L122.021 471.328C124.025 484.452 135.116 493.978 148.392 493.978H345.605C358.881 493.978 369.972 484.452 371.976 471.328L390.114 352.589ZM396.927 109.821H97.067C92.09 109.821 88.056 113.855 88.056 118.832C88.056 123.81 92.091 127.843 97.067 127.843H396.927C401.904 127.843 405.938 123.809 405.938 118.832C405.939 113.855 401.904 109.821 396.927 109.821ZM373.556 149.97H120.438C115.461 149.97 111.427 154.004 111.427 158.981C111.427 163.959 115.462 167.993 120.438 167.993H373.555C378.533 167.993 382.568 163.959 382.568 158.981C382.568 154.004 378.533 149.97 373.556 149.97ZM146.228 403.246H347.766C352.743 403.246 356.778 407.279 356.778 412.258C356.778 417.235 352.744 421.269 347.767 421.269H146.228C141.252 421.269 137.217 417.236 137.217 412.258C137.217 407.28 141.251 403.246 146.228 403.246ZM332.059 443.394H161.936C156.959 443.394 152.924 447.428 152.924 452.405C152.924 457.382 156.959 461.416 161.936 461.416H332.058C337.035 461.416 341.069 457.382 341.069 452.405C341.069 447.428 337.036 443.394 332.059 443.394Z" fill="black"/>
</svg>
