<svg width="351" height="463" viewBox="0 0 351 463" fill="none" xmlns="http://www.w3.org/2000/svg">
<path d="M326.382 0H326.35C314.177 0 303.699 9.087 301.977 21.138L266.118 272.154C264.409 284.115 271.96 295.345 283.682 298.276L295.703 301.281L289.239 430.556C288.812 439.092 291.821 447.203 297.712 453.396C303.603 459.589 311.554 463 320.101 463C337.14 463 351.001 449.138 351.001 432.1V24.62C351.001 11.044 339.957 0 326.382 0ZM336.001 432.099C336.001 440.867 328.868 447.999 320.101 447.999C315.703 447.999 311.612 446.244 308.58 443.058C305.548 439.872 304 435.698 304.22 431.305L310.991 295.874C311.17 292.297 308.794 289.092 305.319 288.224L287.319 283.724C283.079 282.664 280.348 278.602 280.966 274.275L316.826 23.259C317.498 18.551 321.593 15 326.349 15H326.381C331.685 15 336.001 19.315 336.001 24.62V432.099Z" fill="black"/>
<path d="M230.992 7.125C230.785 2.988 227.257 -0.19 223.127 0.009C218.99 0.216 215.804 3.737 216.011 7.874L222.417 135.999H199.001V7.5C199.001 3.358 195.643 0 191.501 0C187.359 0 184.001 3.358 184.001 7.5V136H160.585L166.99 7.875C167.197 3.738 164.011 0.217 159.874 0.01C155.738 -0.2 152.216 2.989 152.009 7.126L144.463 158.053C144.052 166.273 148.051 174.215 154.899 178.78L163.961 184.821C166.416 186.458 167.829 189.196 167.742 192.145L160.67 431.302C160.437 439.699 163.534 447.64 169.39 453.662C175.247 459.684 183.099 463.001 191.5 463.001C199.901 463.001 207.753 459.685 213.61 453.662C219.466 447.64 222.564 439.699 222.33 431.289L215.259 192.145C215.172 189.196 216.586 186.458 219.04 184.821L228.102 178.78C234.949 174.215 238.948 166.273 238.537 158.053L230.992 7.125ZM219.783 166.298L210.721 172.339C203.934 176.863 200.026 184.433 200.267 192.587L207.338 431.718C207.458 436.031 205.867 440.11 202.859 443.203C199.85 446.296 195.817 448 191.502 448C187.187 448 183.153 446.296 180.145 443.203C177.137 440.11 175.546 436.031 175.666 431.731L182.737 192.587C182.978 184.433 179.07 176.864 172.283 172.339L163.221 166.298C160.744 164.647 159.298 161.774 159.447 158.801L159.837 150.999H223.168L223.558 158.801C223.706 161.774 222.26 164.647 219.783 166.298Z" fill="black"/>
<path d="M63.501 0C47.875 0 26.243 7.845 11.929 45.22C3.12501 68.206 0.00100708 95.291 0.00100708 111.5C0.00100708 133.816 11.39 154.087 30.466 165.726C35.772 168.964 38.854 174.435 38.71 180.361L32.589 431.324C32.384 439.724 35.503 447.661 41.372 453.675C47.24 459.688 55.099 463 63.501 463C71.903 463 79.763 459.688 85.631 453.675C91.5 447.662 94.619 439.724 94.414 431.324L88.292 180.362C88.148 174.435 91.23 168.964 96.536 165.726C115.613 154.087 127.001 133.815 127.001 111.5C127.001 95.291 123.877 68.207 115.073 45.22C100.76 7.845 79.128 0 63.501 0ZM88.722 152.921C78.935 158.893 73.024 169.547 73.296 180.727L79.417 431.689C79.523 436.014 77.917 440.101 74.895 443.197C71.873 446.294 67.826 447.999 63.5 447.999C59.174 447.999 55.127 446.294 52.105 443.198C49.083 440.102 47.477 436.014 47.583 431.689L53.704 180.727C53.977 169.548 48.066 158.893 38.278 152.921C23.702 144.028 15 128.543 15 111.5C15 80.015 26.855 15 63.5 15C100.145 15 112 80.015 112 111.5C112.001 128.543 103.3 144.028 88.722 152.921Z" fill="black"/>
</svg>
